<svg width="19" height="19" viewBox="0 0 19 19" fill="none" xmlns="http://www.w3.org/2000/svg">
<path d="M3.40054 3.33984H4.41604C5.33684 3.33984 6.08596 2.59072 6.08596 1.66992C6.08596 0.749127 5.33684 0 4.41604 0C3.49525 0 2.74612 0.749127 2.74612 1.66992V2.4051C1.39037 3.00441 0.65586 4.10252 0.667995 5.53405C0.691485 8.29357 3.52909 11.7601 6.08596 12.23V13.9902C6.08596 16.7526 8.33334 19 11.0957 19C13.8581 19 16.1055 16.7526 16.1055 13.9902V13.3405C17.3743 13.0819 18.3321 11.9574 18.3321 10.6133C18.3321 9.07862 17.0835 7.83008 15.5489 7.83008C14.0142 7.83008 12.7656 9.07862 12.7656 10.6133C12.7656 11.9574 13.7234 13.0819 14.9922 13.3405V13.9902C14.9922 16.1388 13.2442 17.8867 11.0957 17.8867C8.94721 17.8867 7.19924 16.1388 7.19924 13.9902V12.2313C9.58734 11.7983 12.1195 8.80401 12.5458 6.28143C12.8458 4.50671 12.117 3.11748 10.5391 2.41215V1.66992C10.5391 0.749127 9.78996 0 8.86916 0C7.94837 0 7.19924 0.749127 7.19924 1.66992C7.19924 2.59072 7.94837 3.33984 8.86916 3.33984H9.86882C11.1454 3.81525 11.677 4.74187 11.4482 6.09592C11.0284 8.57924 8.36132 11.1699 6.6426 11.1699C4.65558 11.1699 1.80183 7.94348 1.78128 5.52455C1.77233 4.47825 2.31721 3.74371 3.40054 3.33984ZM3.8594 1.66992C3.8594 1.36299 4.10911 1.11328 4.41604 1.11328C4.72297 1.11328 4.97268 1.36299 4.97268 1.66992C4.97268 1.97685 4.72297 2.22656 4.41604 2.22656H3.8594V1.66992ZM13.8789 10.6133C13.8789 9.69249 14.6281 8.94336 15.5489 8.94336C16.4696 8.94336 17.2188 9.69249 17.2188 10.6133C17.2188 11.5341 16.4696 12.2832 15.5489 12.2832C14.6281 12.2832 13.8789 11.5341 13.8789 10.6133ZM9.42581 2.22656H8.86916C8.56223 2.22656 8.31252 1.97685 8.31252 1.66992C8.31252 1.36299 8.56223 1.11328 8.86916 1.11328C9.1761 1.11328 9.42581 1.36299 9.42581 1.66992V2.22656Z" fill="#6AC7BE"/>
</svg>
