<svg width="23" height="23" viewBox="0 0 23 23" fill="none" xmlns="http://www.w3.org/2000/svg">
<g clip-path="url(#clip0_212_3027)">
<path d="M21.5625 5.75H1.4375C0.644958 5.75 0 5.10504 0 4.3125V1.4375C0 0.644958 0.644958 0 1.4375 0H21.5625C22.355 0 23 0.644958 23 1.4375V4.3125C23 5.10504 22.355 5.75 21.5625 5.75ZM1.4375 0.958333C1.173 0.958333 0.958333 1.173 0.958333 1.4375V4.3125C0.958333 4.577 1.173 4.79167 1.4375 4.79167H21.5625C21.827 4.79167 22.0417 4.577 22.0417 4.3125V1.4375C22.0417 1.173 21.827 0.958333 21.5625 0.958333H1.4375Z" fill="#6AC7BE"/>
<path d="M9.10417 23.0003H1.4375C0.644958 23.0003 0 22.3554 0 21.5628V9.10449C0 8.31195 0.644958 7.66699 1.4375 7.66699H9.10417C9.89671 7.66699 10.5417 8.31195 10.5417 9.10449V21.5628C10.5417 22.3554 9.89671 23.0003 9.10417 23.0003ZM1.4375 8.62533C1.173 8.62533 0.958333 8.83999 0.958333 9.10449V21.5628C0.958333 21.8273 1.173 22.042 1.4375 22.042H9.10417C9.36867 22.042 9.58333 21.8273 9.58333 21.5628V9.10449C9.58333 8.83999 9.36867 8.62533 9.10417 8.62533H1.4375Z" fill="#6AC7BE"/>
<path d="M21.5622 14.3753H13.8955C13.103 14.3753 12.458 13.7304 12.458 12.9378V9.10449C12.458 8.31195 13.103 7.66699 13.8955 7.66699H21.5622C22.3547 7.66699 22.9997 8.31195 22.9997 9.10449V12.9378C22.9997 13.7304 22.3547 14.3753 21.5622 14.3753ZM13.8955 8.62533C13.631 8.62533 13.4163 8.83999 13.4163 9.10449V12.9378C13.4163 13.2023 13.631 13.417 13.8955 13.417H21.5622C21.8267 13.417 22.0413 13.2023 22.0413 12.9378V9.10449C22.0413 8.83999 21.8267 8.62533 21.5622 8.62533H13.8955Z" fill="#6AC7BE"/>
<path d="M21.5622 23.0003H13.8955C13.103 23.0003 12.458 22.3554 12.458 21.5628V17.7295C12.458 16.937 13.103 16.292 13.8955 16.292H21.5622C22.3547 16.292 22.9997 16.937 22.9997 17.7295V21.5628C22.9997 22.3554 22.3547 23.0003 21.5622 23.0003ZM13.8955 17.2503C13.631 17.2503 13.4163 17.465 13.4163 17.7295V21.5628C13.4163 21.8273 13.631 22.042 13.8955 22.042H21.5622C21.8267 22.042 22.0413 21.8273 22.0413 21.5628V17.7295C22.0413 17.465 21.8267 17.2503 21.5622 17.2503H13.8955Z" fill="#6AC7BE"/>
</g>
<defs>
<clipPath id="clip0_212_3027">
<rect width="23" height="23" fill="white"/>
</clipPath>
</defs>
</svg>
