<svg width="17" height="17" viewBox="0 0 17 17" fill="none" xmlns="http://www.w3.org/2000/svg">
<path d="M12.75 1.25023C12.947 1.05324 13.1808 0.896988 13.4382 0.790382C13.6956 0.683776 13.9714 0.628906 14.25 0.628906C14.5286 0.628906 14.8044 0.683776 15.0618 0.790382C15.3192 0.896988 15.553 1.05324 15.75 1.25023C15.947 1.44721 16.1032 1.68106 16.2098 1.93843C16.3164 2.1958 16.3713 2.47165 16.3713 2.75023C16.3713 3.0288 16.3164 3.30465 16.2098 3.56202C16.1032 3.81939 15.947 4.05324 15.75 4.25023L5.625 14.3752L1.5 15.5002L2.625 11.3752L12.75 1.25023Z" stroke="#6AC7BE" stroke-width="1.25" stroke-linecap="round" stroke-linejoin="round"/>
</svg>
