<svg width="23" height="23" viewBox="0 0 23 23" fill="none" xmlns="http://www.w3.org/2000/svg">
<path d="M22.4092 2.06095C21.8524 1.32277 21.0028 0.899435 20.0781 0.899435H19.6867V0.674831C19.6867 0.302709 19.385 0.00102148 19.0129 0.00102148C18.6408 0.00102148 18.3391 0.302709 18.3391 0.674831V2.47166C18.3391 2.84378 18.6408 3.14547 19.0129 3.14547C19.385 3.14547 19.6867 2.84378 19.6867 2.47166V2.24705H20.0781C20.576 2.24705 21.0335 2.47503 21.3333 2.87248C21.6331 3.26994 21.7266 3.77247 21.5898 4.25119L19.8015 10.5105C19.3024 12.2573 17.6851 13.4772 15.8684 13.4772C14.0518 13.4772 12.4345 12.2572 11.9354 10.5105L10.1471 4.25114C10.0103 3.77242 10.1038 3.2699 10.4036 2.87244C10.7034 2.47494 11.1609 2.24701 11.6588 2.24701H12.0502V2.47161C12.0502 2.84374 12.3519 3.14542 12.724 3.14542C13.0961 3.14542 13.3978 2.84374 13.3978 2.47161V0.674786C13.3978 0.302664 13.0961 0.000976562 12.724 0.000976562C12.3519 0.000976562 12.0502 0.302664 12.0502 0.674786V0.89939H11.6588C10.7342 0.89939 9.88452 1.32277 9.32773 2.0609C8.77089 2.79908 8.59727 3.73231 8.8513 4.62134L10.6397 10.8807C10.967 12.0261 11.6427 13.0108 12.5937 13.7282C12.7976 13.882 13.0102 14.0192 13.2295 14.1415L15.1947 18.7799V19.2662C15.1947 20.5821 14.1241 21.6527 12.8081 21.6527C11.4922 21.6527 10.4216 20.5821 10.4216 19.2662V14.6451C10.4216 12.515 8.68855 10.7819 6.55841 10.7819C4.42828 10.7819 2.69524 12.515 2.69524 14.6451V16.2402C1.15931 16.5532 0 17.9144 0 19.5415C0 21.3992 1.51135 22.9105 3.36905 22.9105C5.22674 22.9105 6.7381 21.3992 6.7381 19.5415C6.7381 17.9145 5.57878 16.5532 4.04286 16.2402V14.6451C4.04286 13.258 5.17135 12.1296 6.55841 12.1296C7.94547 12.1296 9.07397 13.258 9.07397 14.6451V19.2662C9.07397 21.3252 10.7491 23.0004 12.8081 23.0004C14.8672 23.0004 16.5423 21.3252 16.5423 19.2662V18.7799L18.5075 14.1415C18.7268 14.0192 18.9394 13.882 19.1432 13.7282C20.0943 13.0108 20.77 12.0261 21.0973 10.8807L22.8857 4.62134C23.1397 3.73236 22.966 2.79908 22.4092 2.06095ZM5.39048 19.5415C5.39048 20.6561 4.48366 21.5629 3.36905 21.5629C2.25443 21.5629 1.34762 20.6561 1.34762 19.5415C1.34762 18.4268 2.25443 17.52 3.36905 17.52C4.48366 17.52 5.39048 18.4268 5.39048 19.5415ZM15.8685 16.9158L14.9498 14.7473C15.2506 14.7983 15.5575 14.8248 15.8685 14.8248C16.1796 14.8248 16.4864 14.7983 16.7872 14.7473L15.8685 16.9158Z" fill="#6AC7BE"/>
</svg>
